<svg fill="none" height="1536" viewBox="0 0 1664 1536" width="1664" xmlns="http://www.w3.org/2000/svg"><path d="m780 344c0 40-6.333 77.833-19 113.5s-33.667 66.5-63 92.5-64.333 39-105 39c-50.667 0-96.667-19.167-138-57.5s-72-83.5-92-135.5-30-102.333-30-151c0-40 6.333-77.833 19-113.5 12.667-35.6667 33.667-66.5 63-92.5s64.333-39 105-39c51.333 0 97.5 19.1667 138.5 57.5s71.5 83.333 91.5 135 30 102.167 30 151.5zm-342 483c0 53.333-14 99.667-42 139-28 39.33-67.667 59-119 59-50.667 0-97.833-18.5-141.5-55.5-43.6667-37-77.1667-81.5-100.5-133.5s-35-102.667-35-152c0-53.333 14-99.833 42-139.5s67.667-59.5 119-59.5c50.667 0 97.833 18.5 141.5 55.5s77.167 81.667 100.5 134 35 103.167 35 152.5zm394-27c78.667 0 163.667 32.5 255 97.5 91.33 65 167.67 144 229 237s92 177.83 92 254.5c0 30.67-5.67 56.17-17 76.5s-27.5 35.33-48.5 45-42.5 16.33-64.5 20-47.33 5.5-76 5.5c-45.33 0-107.83-15-187.5-45-79.667-30-140.5-45-182.5-45-44 0-108.167 14.83-192.5 44.5s-151.167 44.5-200.5 44.5c-122 0-183-48.67-183-146 0-57.33 18.667-121.17 56-191.5s83.833-134.5 139.5-192.5 118.167-106.667 187.5-146 133.667-59 193-59zm239-211c-40.67 0-75.667-13-105-39s-50.333-56.833-63-92.5-19-73.5-19-113.5c0-49.333 10-99.833 30-151.5s50.5-96.6667 91.5-135 87.17-57.5 138.5-57.5c40.67 0 75.67 13 105 39s50.33 56.8333 63 92.5c12.67 35.667 19 73.5 19 113.5 0 48.667-10 99-30 151s-50.67 97.167-92 135.5-87.33 57.5-138 57.5zm432-104c51.33 0 91 19.833 119 59.5s42 86.167 42 139.5c0 49.333-11.67 100-35 152s-56.83 96.5-100.5 133.5-90.83 55.5-141.5 55.5c-51.33 0-91-19.67-119-59-28-39.333-42-85.667-42-139 0-49.333 11.67-100.167 35-152.5s56.83-97 100.5-134 90.83-55.5 141.5-55.5z" fill="#33414b"/></svg>