<svg enable-background="new 0 0 32 32" viewBox="0 0 32 32" xmlns="http://www.w3.org/2000/svg"><path d="m10 23c-.2558594 0-.5117188-.0976563-.7070313-.2929688-.390625-.390625-.390625-1.0234375 0-1.4140625l12-12c.390625-.390625 1.0234375-.390625 1.4140625 0s.390625 1.0234375 0 1.4140625l-12 12c-.1953124.1953126-.4511718.2929688-.7070312.2929688z"/><path d="m22 23c-.2558594 0-.5117188-.0976563-.7070313-.2929688l-12-12c-.390625-.390625-.390625-1.0234375 0-1.4140625s1.0234375-.390625 1.4140625 0l12 12c.390625.390625.390625 1.0234375 0 1.4140625-.1953124.1953126-.4511718.2929688-.7070312.2929688z"/></svg>