<svg width="281" height="306" viewBox="0 0 281 306" fill="none" xmlns="http://www.w3.org/2000/svg">
<path d="M218.067 143.766C210.783 143.766 203.893 142.607 197.398 140.288C190.903 137.969 185.288 134.124 180.553 128.753C175.818 123.382 173.45 116.974 173.45 109.529C173.45 100.252 176.941 91.8302 183.922 84.2625C190.903 76.6948 199.128 71.0801 208.598 67.4183C218.067 63.7565 227.233 61.9256 236.096 61.9256C243.38 61.9256 250.27 63.0852 256.766 65.4043C263.261 67.7235 268.876 71.5683 273.611 76.9389C278.345 82.3095 280.713 88.7177 280.713 96.1633C280.713 105.562 277.222 114.014 270.242 121.521C263.261 129.028 255.066 134.612 245.657 138.274C236.248 141.936 227.051 143.766 218.067 143.766ZM130.108 81.15C120.396 81.15 111.958 78.5867 104.795 73.4603C97.6323 68.3338 94.0508 61.0712 94.0508 51.6727C94.0508 42.3962 97.4198 33.7605 104.158 25.7656C110.896 17.7707 119 11.6372 128.469 7.36514C137.939 3.09307 147.166 0.957031 156.15 0.957031C165.863 0.957031 174.331 3.52028 181.554 8.64677C188.778 13.7733 192.39 21.0358 192.39 30.4343C192.39 39.7109 189.021 48.3465 182.283 56.3414C175.545 64.3363 167.41 70.4698 157.88 74.7419C148.35 79.0139 139.092 81.15 130.108 81.15ZM135.025 153.287C135.025 167.69 129.107 183.253 117.27 199.975C105.433 216.697 91.046 230.673 74.1098 241.902C57.1736 253.132 41.7247 258.746 27.763 258.746C22.1783 258.746 17.5345 257.709 13.8316 255.634C10.1287 253.559 7.39703 250.599 5.63666 246.754C3.87628 242.909 2.66223 238.973 1.99451 234.945C1.32678 230.917 0.992889 226.278 0.992889 221.03C0.992889 212.73 3.72452 201.287 9.18781 186.701C14.6511 172.115 17.3828 160.977 17.3828 153.287C17.3828 145.231 14.6814 133.483 9.27884 118.042C3.87625 102.602 1.17499 90.3655 1.17499 81.3331C1.17499 58.9962 10.0377 47.8278 27.763 47.8278C38.2039 47.8278 49.8285 51.2455 62.6369 58.0808C75.4453 64.9161 87.1306 73.4297 97.693 83.6217C108.255 93.8136 117.118 105.257 124.281 117.951C131.444 130.645 135.025 142.424 135.025 153.287ZM173.45 197.045C173.45 189.6 175.818 183.192 180.553 177.821C185.288 172.45 190.903 168.605 197.398 166.286C203.893 163.967 210.783 162.808 218.067 162.808C227.051 162.808 236.248 164.639 245.657 168.3C255.066 171.962 263.261 177.546 270.242 185.053C277.222 192.56 280.713 201.012 280.713 210.411C280.713 217.856 278.345 224.264 273.611 229.635C268.876 235.006 263.261 238.851 256.766 241.17C250.27 243.489 243.38 244.648 236.096 244.648C227.233 244.648 218.067 242.818 208.598 239.156C199.128 235.494 190.903 229.879 183.922 222.312C176.941 214.744 173.45 206.322 173.45 197.045ZM192.39 276.14C192.39 285.538 188.778 292.801 181.554 297.927C174.331 303.054 165.863 305.617 156.15 305.617C147.166 305.617 137.939 303.481 128.469 299.209C119 294.937 110.896 288.803 104.158 280.808C97.4198 272.814 94.0508 264.178 94.0508 254.901C94.0508 245.503 97.6323 238.24 104.795 233.114C111.958 227.987 120.396 225.424 130.108 225.424C139.092 225.424 148.35 227.56 157.88 231.832C167.41 236.104 175.545 242.238 182.283 250.233C189.021 258.227 192.39 266.863 192.39 276.14Z" fill="#383838"/>
<path d="M218.067 143.766C210.783 143.766 203.893 142.607 197.398 140.288C190.903 137.969 185.288 134.124 180.553 128.753C175.818 123.382 173.45 116.974 173.45 109.529C173.45 100.252 176.941 91.8302 183.922 84.2625C190.903 76.6948 199.128 71.0801 208.598 67.4183C218.067 63.7565 227.233 61.9256 236.096 61.9256C243.38 61.9256 250.27 63.0852 256.766 65.4043C263.261 67.7235 268.876 71.5683 273.611 76.9389C278.345 82.3095 280.713 88.7177 280.713 96.1633C280.713 105.562 277.222 114.014 270.242 121.521C263.261 129.028 255.066 134.612 245.657 138.274C236.248 141.936 227.051 143.766 218.067 143.766ZM130.108 81.15C120.396 81.15 111.958 78.5867 104.795 73.4603C97.6323 68.3338 94.0508 61.0712 94.0508 51.6727C94.0508 42.3962 97.4198 33.7605 104.158 25.7656C110.896 17.7707 119 11.6372 128.469 7.36514C137.939 3.09307 147.166 0.957031 156.15 0.957031C165.863 0.957031 174.331 3.52028 181.554 8.64677C188.778 13.7733 192.39 21.0358 192.39 30.4343C192.39 39.7109 189.021 48.3465 182.283 56.3414C175.545 64.3363 167.41 70.4698 157.88 74.7419C148.35 79.0139 139.092 81.15 130.108 81.15ZM135.025 153.287C135.025 167.69 129.107 183.253 117.27 199.975C105.433 216.697 91.046 230.673 74.1098 241.902C57.1736 253.132 41.7247 258.746 27.763 258.746C22.1783 258.746 17.5345 257.709 13.8316 255.634C10.1287 253.559 7.39703 250.599 5.63666 246.754C3.87628 242.909 2.66223 238.973 1.99451 234.945C1.32678 230.917 0.992889 226.278 0.992889 221.03C0.992889 212.73 3.72452 201.287 9.18781 186.701C14.6511 172.115 17.3828 160.977 17.3828 153.287C17.3828 145.231 14.6814 133.483 9.27884 118.042C3.87625 102.602 1.17499 90.3655 1.17499 81.3331C1.17499 58.9962 10.0377 47.8278 27.763 47.8278C38.2039 47.8278 49.8285 51.2455 62.6369 58.0808C75.4453 64.9161 87.1306 73.4297 97.693 83.6217C108.255 93.8136 117.118 105.257 124.281 117.951C131.444 130.645 135.025 142.424 135.025 153.287ZM173.45 197.045C173.45 189.6 175.818 183.192 180.553 177.821C185.288 172.45 190.903 168.605 197.398 166.286C203.893 163.967 210.783 162.808 218.067 162.808C227.051 162.808 236.248 164.639 245.657 168.3C255.066 171.962 263.261 177.546 270.242 185.053C277.222 192.56 280.713 201.012 280.713 210.411C280.713 217.856 278.345 224.264 273.611 229.635C268.876 235.006 263.261 238.851 256.766 241.17C250.27 243.489 243.38 244.648 236.096 244.648C227.233 244.648 218.067 242.818 208.598 239.156C199.128 235.494 190.903 229.879 183.922 222.312C176.941 214.744 173.45 206.322 173.45 197.045ZM192.39 276.14C192.39 285.538 188.778 292.801 181.554 297.927C174.331 303.054 165.863 305.617 156.15 305.617C147.166 305.617 137.939 303.481 128.469 299.209C119 294.937 110.896 288.803 104.158 280.808C97.4198 272.814 94.0508 264.178 94.0508 254.901C94.0508 245.503 97.6323 238.24 104.795 233.114C111.958 227.987 120.396 225.424 130.108 225.424C139.092 225.424 148.35 227.56 157.88 231.832C167.41 236.104 175.545 242.238 182.283 250.233C189.021 258.227 192.39 266.863 192.39 276.14Z" fill="#EAEAEA"/>
</svg>
